<svg id="Layer_1" enable-background="new 0 0 512 512" height="512" viewBox="0 0 512 512" width="512" xmlns="http://www.w3.org/2000/svg"><g><g><path d="m36 296c-4.418 0-8-3.582-8-8 0-30.879 25.122-56 56-56h24c4.418 0 8 3.582 8 8s-3.582 8-8 8h-24c-22.056 0-40 17.944-40 40 0 4.418-3.582 8-8 8z" fill="#ff6e91"/></g><g><path d="m380 496h-240c-17.673 0-32-14.327-32-32v-416c0-17.673 14.327-32 32-32h240c17.673 0 32 14.327 32 32v416c0 17.673-14.327 32-32 32z" fill="#a5c3dc"/></g><g><path d="m332 496h-192c-17.673 0-32-14.327-32-32v-416c0-17.673 14.327-32 32-32h192c17.673 0 32 14.327 32 32v416c0 17.673-14.327 32-32 32z" fill="#d7e6f0"/></g><g><path d="m316 464h-160c-8.837 0-16-7.163-16-16v-352c0-8.837 7.163-16 16-16h160c8.837 0 16 7.163 16 16v352c0 8.837-7.163 16-16 16z" fill="#555a6e"/></g><g><path d="m260 56h-48c-4.418 0-8-3.582-8-8 0-4.418 3.582-8 8-8h48c4.418 0 8 3.582 8 8 0 4.418-3.582 8-8 8z" fill="#555a6e"/></g><g><g><path d="m183.373 432h284.627c8.837 0 16-7.163 16-16v-160c0-8.837-7.163-16-16-16h-284.627c-7.198 0-14.017 3.231-18.575 8.802l-59.732 73.006c-3.276 4.004-5.066 9.019-5.066 14.192 0 5.173 1.79 10.188 5.066 14.192l59.732 73.006c4.558 5.571 11.377 8.802 18.575 8.802z" fill="#289bc3"/></g><g><path d="m183.373 432h260.627c8.837 0 16-7.163 16-16v-160c0-8.837-7.163-16-16-16h-260.627c-7.198 0-14.017 3.231-18.575 8.802l-59.732 73.006c-3.276 4.004-5.066 9.019-5.066 14.192 0 5.173 1.79 10.188 5.066 14.192l59.732 73.006c4.558 5.571 11.377 8.802 18.575 8.802z" fill="#00d2d2"/></g><g><circle cx="140" cy="336" fill="#289bc3" r="24"/></g><g fill="#d7e6f0"><path d="m297.333 288h24c4.418 0 8-3.582 8-8s-3.582-8-8-8h-24c-13.233 0-24 10.767-24 24v80c0 13.233 10.767 24 24 24h24c4.418 0 8-3.582 8-8s-3.582-8-8-8h-24c-4.411 0-8-3.589-8-8v-32h16c4.418 0 8-3.582 8-8s-3.582-8-8-8h-16v-32c0-4.411 3.589-8 8-8z"/><path d="m246.667 272c-4.418 0-8 3.582-8 8v62.701l-21.744-65.231c-1.241-3.723-5.002-6-8.871-5.366-3.873.628-6.719 3.973-6.719 7.896v112c0 4.418 3.582 8 8 8s8-3.582 8-8v-62.701l21.744 65.231c1.103 3.308 4.192 5.471 7.584 5.471.425 0 .855-.034 1.287-.104 3.873-.628 6.719-3.973 6.719-7.896v-112.001c0-4.418-3.582-8-8-8z"/><path d="m414.667 272c-4.418 0-8 3.582-8 8v96c0 4.411-3.589 8-8 8s-8-3.589-8-8v-96c0-4.418-3.582-8-8-8s-8 3.582-8 8v96c0 4.411-3.589 8-8 8s-8-3.589-8-8v-96c0-4.418-3.582-8-8-8s-8 3.582-8 8v96c0 13.233 10.767 24 24 24 6.142 0 11.75-2.322 16-6.131 4.25 3.809 9.858 6.131 16 6.131 13.233 0 24-10.767 24-24v-96c0-4.418-3.582-8-8-8z"/></g></g><g><path d="m140 344h-56c-30.878 0-56-25.121-56-56 0-4.418 3.582-8 8-8s8 3.582 8 8c0 22.056 17.944 40 40 40h56c4.418 0 8 3.582 8 8s-3.582 8-8 8z" fill="#ff6e91"/></g><g><path d="m156 218.243v-106.243c0-8.837 7.163-16 16-16h108.147c7.159 0 10.714 8.683 5.61 13.703l-116.147 114.244c-5.059 4.975-13.61 1.392-13.61-5.704z" fill="#6e7896"/></g></g></svg>