<?xml version="1.0"?>
<svg xmlns="http://www.w3.org/2000/svg" xmlns:xlink="http://www.w3.org/1999/xlink" version="1.1" id="Capa_1" x="0px" y="0px" viewBox="0 0 514.447 514.447" style="enable-background:new 0 0 514.447 514.447;" xml:space="preserve" width="512px" height="512px" class=""><g><path style="fill:#D3D7DA;" d="M492,506.423H167.2c-8.8,0-16-7.2-16-16v-465.6c0-8.8,7.2-16,16-16H492c8.8,0,16,7.2,16,16v465.6  C508,499.223,500.8,506.423,492,506.423z" data-original="#D3D7DA" class=""/><rect x="183.2" y="64.023" style="fill:#FFFFFF;" width="292.8" height="363.2" data-original="#FFFFFF" class=""/><path style="fill:#F15F50;" d="M442.4,180.823c-2.4-15.2-16.8-24.8-32-24.8H289.6c-15.2,0-29.6,10.4-32,24.8  c-3.2,19.2,11.2,36,30.4,36h124.8C431.2,216.823,446.4,200.023,442.4,180.823z" data-original="#F15F50" class=""/><g>
	<path style="fill:#FFFFFF;" d="M323.2,188.823c1.6,1.6,2.4,3.2,2.4,6.4s-0.8,6.4-3.2,8c-2.4,1.6-6.4,3.2-11.2,3.2h-13.6   c-0.8,0-1.6,0-1.6-0.8c-0.8-0.8-0.8-0.8-0.8-1.6v-34.4c0-0.8,0-1.6,0.8-1.6c0.8-0.8,0.8-0.8,1.6-0.8h13.6c4,0,7.2,0.8,9.6,2.4   c2.4,1.6,3.2,4,3.2,7.2c0,2.4-0.8,4-1.6,5.6c-0.8,1.6-2.4,2.4-4,3.2C320,186.423,321.6,187.223,323.2,188.823z M316,172.823   c-1.6-0.8-3.2-1.6-5.6-1.6H300v12h9.6c3.2,0,5.6-0.8,7.2-1.6s2.4-2.4,2.4-4.8C318.4,175.223,317.6,174.423,316,172.823z    M317.6,199.223c1.6-0.8,2.4-2.4,2.4-4.8c0-4-3.2-6.4-10.4-6.4h-10.4v13.6h10.4C313.6,201.623,316.8,200.823,317.6,199.223z" data-original="#FFFFFF" class=""/>
	<path style="fill:#FFFFFF;" d="M365.6,167.223c0.8,0.8,0.8,0.8,0.8,1.6v22.4c0,3.2-0.8,6.4-2.4,8.8c-1.6,2.4-4,4-6.4,4.8   s-4.8,1.6-8,1.6c-2.4,0-5.6-0.8-8-1.6s-4.8-3.2-6.4-4.8c-1.6-2.4-2.4-4.8-2.4-8.8v-22.4c0-0.8,0-1.6,0.8-1.6   c0.8-0.8,0.8-0.8,1.6-0.8c0.8,0,1.6,0,1.6,0.8c0.8,0.8,0.8,0.8,0.8,1.6v22.4c0,2.4,0.8,4,1.6,5.6c0.8,1.6,2.4,2.4,4,3.2   c2.4,1.6,4.8,1.6,6.4,1.6s4,0,5.6-0.8s3.2-1.6,4-3.2c0.8-1.6,1.6-3.2,1.6-5.6v-22.4c0-0.8,0-1.6,0.8-1.6c0.8-0.8,0.8-0.8,1.6-0.8   C364,166.423,364.8,166.423,365.6,167.223z" data-original="#FFFFFF" class=""/>
	<path style="fill:#FFFFFF;" d="M404,166.423c0.8,0,1.6,0,1.6,0.8c0.8,0.8,0.8,0.8,0.8,1.6s0,0.8-0.8,1.6l-13.6,19.2v14.4   c0,0.8,0,1.6-0.8,1.6c-0.8,0.8-0.8,0.8-1.6,0.8s-1.6,0-1.6-0.8c-0.8-0.8-0.8-0.8-0.8-1.6v-14.4l-13.6-19.2c0-0.8-0.8-0.8-0.8-1.6   s0-1.6,0.8-1.6c0.8-0.8,0.8-0.8,1.6-0.8c0.8,0,1.6,0.8,2.4,1.6l12,17.6l12-17.6C401.6,166.423,402.4,166.423,404,166.423z" data-original="#FFFFFF" class=""/>
</g><polygon style="fill:#FFBF5D;" points="410.4,200.823 456.8,230.423 439.2,232.823 456.8,260.823 439.2,272.023 421.6,239.223   412,255.223 " data-original="#FFBF5D" class=""/><g>
	<path style="fill:#FFFFFF;" d="M232.8,365.623c-8-8-20.8-8-28.8,0l8-8c8-8,8-20.8,0-28.8s-20.8-8-28.8,0l9.6-9.6c8-8,8-20.8,0-28.8   s-20.8-8-28.8,0l58.4-58.4c8-8,8-20.8,0-28.8s-20.8-8-28.8,0l-91.2,90.4l20-52c4-10.4-1.6-22.4-12-26.4s-22.4,1.6-26.4,12l-33.6,88   c-1.6,4.8-3.2,9.6-4,15.2l-6.4,52l80,80l44.8-12.8c12-3.2,22.4-9.6,31.2-18.4l8.8-8.8l27.2-27.2   C240.8,386.423,240.8,373.623,232.8,365.623z" data-original="#FFFFFF" class=""/>
</g><rect x="8.174" y="415.439" transform="matrix(-0.7071 -0.7071 0.7071 -0.7071 -195.9032 790.5324)" style="fill:#F15F50;" width="115.199" height="40.8" data-original="#F15F50" class=""/><g>
	<rect x="250.4" y="457.623" style="fill:#C53939" width="14.4" height="16" data-original="#193651" class="active-path" data-old_color="#193651"/>
	<rect x="394.4" y="457.623" style="fill:#C53939" width="14.4" height="16" data-original="#193651" class="active-path" data-old_color="#193651"/>
	<rect x="346.4" y="250.423" style="fill:#C53939" width="7.2" height="42.4" data-original="#193651" class="active-path" data-old_color="#193651"/>
	
		<rect x="275.862" y="262.028" transform="matrix(-0.7072 0.707 -0.707 -0.7072 694.9462 243.4574)" style="fill:#C53939" width="42.4" height="7.2" data-original="#193651" class="active-path" data-old_color="#193651"/>
	
		<rect x="398.976" y="244.247" transform="matrix(-0.7071 0.7071 -0.7071 -0.7071 874.9392 168.4809)" style="fill:#C53939" width="7.2" height="42.4" data-original="#193651" class="active-path" data-old_color="#193651"/>
	<rect x="346.4" y="80.023" style="fill:#C53939" width="7.2" height="42.4" data-original="#193651" class="active-path" data-old_color="#193651"/>
	
		<rect x="381.818" y="104.047" transform="matrix(-0.7071 0.7072 -0.7072 -0.7071 764.101 -101.2382)" style="fill:#C53939" width="42.403" height="7.2" data-original="#193651" class="active-path" data-old_color="#193651"/>
	
		<rect x="293.31" y="86.112" transform="matrix(-0.7071 0.7071 -0.7071 -0.7071 582.7372 -26.7547)" style="fill:#C53939" width="7.2" height="42.4" data-original="#193651" class="active-path" data-old_color="#193651"/>
	<rect x="297.6" y="458.423" style="fill:#C53939" width="64.8" height="14.4" data-original="#193651" class="active-path" data-old_color="#193651"/>
	<rect x="297.6" y="32.823" style="fill:#C53939" width="64.8" height="11.2" data-original="#193651" class="active-path" data-old_color="#193651"/>
	<path style="fill:#C53939" d="M493.6,1.623h-328c-12,0-21.6,9.6-21.6,21.6v218.4l-22.4,22.4l8-20c5.6-14.4-2.4-30.4-16.8-35.2   c-14.4-5.6-30.4,2.4-35.2,16.8l-33.6,87.2c-4,10.4-4,12.8-9.6,63.2L0,409.623l91.2,91.2l32.8-32.8l19.2-5.6v28.8   c0,12,9.6,21.6,21.6,21.6h328c12,0,21.6-9.6,21.6-21.6v-468C515.2,11.223,505.6,1.623,493.6,1.623z M91.2,480.823l-70.4-71.2   l19.2-19.2l71.2,71.2L91.2,480.823z M122.4,453.623l-74.4-74.4c6.4-52.8,6.4-53.6,9.6-61.6l33.6-87.2c2.4-6.4,9.6-10.4,16.8-8   s10.4,10.4,8,16.8l-32,84l114.4-114.4c4.8-4.8,13.6-4.8,18.4,0c4.8,4.8,4.8,13.6,0,18.4l-58.4,58.4l-24.8,24.8l10.4,10.4l24.8-24.8   l0,0c4.8-4.8,13.6-4.8,18.4,0c4.8,4.8,4.8,13.6,0,18.4c-10.4,10.4-5.6,5.6-24.8,24.8l10.4,10.4l16-16c4.8-4.8,13.6-4.8,18.4,0   c4.8,4.8,4.8,13.6,0,18.4c-6.4,6.4-3.2,3.2-16,16l10.4,10.4l8-8c4.8-4.8,13.6-4.8,18.4,0c4.8,4.8,4.8,13.6,0,18.4l-36.8,36.8   C176.8,440.023,165.6,441.623,122.4,453.623z M500.8,492.023c0,4-3.2,7.2-7.2,7.2h-328c-4,0-7.2-3.2-7.2-7.2v-33.6   c10.4-3.2,27.2-6.4,43.2-23.2l36-36c11.2-11.2,11.2-28,0-39.2c-4-4-9.6-6.4-14.4-8c3.2-9.6,1.6-20.8-6.4-28.8   c-4-4-8.8-6.4-13.6-7.2c4-9.6,2.4-22.4-5.6-30.4c-3.2-3.2-7.2-5.6-12-7.2l40.8-40.8c11.2-11.2,11.2-28,0-39.2   c-10.4-10.4-28-10.4-39.2,0l-28.8,28.8v-204c0-4,3.2-7.2,7.2-7.2h328c4,0,7.2,3.2,7.2,7.2V492.023z" data-original="#193651" class="active-path" data-old_color="#193651"/>
</g></g> </svg>
