<svg id="Capa_1" enable-background="new 0 0 511.999 511.999" height="512" viewBox="0 0 511.999 511.999" width="512" xmlns="http://www.w3.org/2000/svg"><path d="m445.999 511.999h-380c-6.131 0-11.645-3.731-13.924-9.422-2.28-5.691-.867-12.197 3.569-16.43l20.494-19.557c28.51-27.207 44.862-65.413 44.862-104.822v-189.77h-55c-6.461 0-12.196-4.138-14.234-10.269s.079-12.879 5.254-16.747l190-142c5.325-3.978 12.635-3.978 17.959 0l190 142c5.176 3.868 7.293 10.616 5.255 16.747s-7.773 10.269-14.234 10.269h-55.001l.001 189.77c0 39.409 16.352 77.615 44.861 104.822l20.494 19.557c4.436 4.232 5.849 10.738 3.569 16.43-2.28 5.69-7.794 9.422-13.925 9.422z" fill="#fff064"/><path d="m460.234 161.73c2.038-6.131-.079-12.879-5.255-16.747l-190-142c-2.662-1.989-5.821-2.983-8.98-2.983v511.999h190c6.131 0 11.645-3.731 13.925-9.422 2.279-5.691.866-12.197-3.569-16.43l-20.494-19.557c-28.51-27.207-44.861-65.413-44.861-104.822l-.001-189.77h55.001c6.46.001 12.196-4.137 14.234-10.268z" fill="#ffdc1e"/><path d="m395.999 191.999c-19.33 0-35 15.67-35 35v45c0 5.523-2.239 10.523-5.858 14.142l3.858 23.858 45.64 25.64c16.287-16.287 26.36-38.787 26.36-63.64v-45c0-19.33-15.67-35-35-35z" fill="#fabe8c"/><path d="m115.999 191.999c19.33 0 35 15.67 35 35v45c0 5.523 2.239 10.523 5.858 14.142l-3.858 23.858-45.64 25.64c-16.287-16.287-26.36-38.787-26.36-63.64v-45c0-19.33 15.67-35 35-35z" fill="#ffd0af"/><path d="m340.999 291.999h-170c-5.523 0-10.523-2.239-14.142-5.858l-49.498 49.498c16.287 16.287 38.787 26.36 63.64 26.36h10v150h150v-150h10c24.853 0 47.353-10.074 63.64-26.36l-49.498-49.498c-3.619 3.619-8.619 5.858-14.142 5.858z" fill="#ff823c"/><path d="m355.141 286.141c-3.619 3.619-8.619 5.858-14.142 5.858h-85v220h75v-150h10c24.853 0 47.353-10.074 63.64-26.36z" fill="#f06923"/><path d="m255.999 321.999c-35.841 0-65-29.159-65-65s29.159-65 65-65 65 29.159 65 65-29.159 65-65 65z" fill="#ffd0af"/><path d="m320.999 256.999c0-35.841-29.159-65-65-65v130c35.841 0 65-29.159 65-65z" fill="#fabe8c"/></svg>